<mxfile host="app.diagrams.net" modified="2023-10-12T15:30:40.623Z" agent="Mozilla/5.0 (Windows NT 10.0; Win64; x64) AppleWebKit/537.36 (KHTML, like Gecko) Chrome/117.0.0.0 Safari/537.36" etag="p6Zy1BynwBiTqX2wSMEe" version="22.0.4" type="github">
  <diagram id="C5RBs43oDa-KdzZeNtuy" name="Page-1">
    <mxGraphModel dx="1434" dy="790" grid="1" gridSize="10" guides="1" tooltips="1" connect="1" arrows="1" fold="1" page="1" pageScale="1" pageWidth="827" pageHeight="1169" math="0" shadow="0">
      <root>
        <mxCell id="WIyWlLk6GJQsqaUBKTNV-0" />
        <mxCell id="WIyWlLk6GJQsqaUBKTNV-1" parent="WIyWlLk6GJQsqaUBKTNV-0" />
        <mxCell id="e8TuYidNNoQ4Y2VT5mHc-6" style="edgeStyle=orthogonalEdgeStyle;rounded=0;orthogonalLoop=1;jettySize=auto;html=1;exitX=0.5;exitY=1;exitDx=0;exitDy=0;entryX=0.5;entryY=0;entryDx=0;entryDy=0;" edge="1" parent="WIyWlLk6GJQsqaUBKTNV-1" source="e8TuYidNNoQ4Y2VT5mHc-0" target="e8TuYidNNoQ4Y2VT5mHc-7">
          <mxGeometry relative="1" as="geometry">
            <mxPoint x="639" y="90" as="targetPoint" />
          </mxGeometry>
        </mxCell>
        <mxCell id="e8TuYidNNoQ4Y2VT5mHc-0" value="start" style="ellipse;whiteSpace=wrap;html=1;" vertex="1" parent="WIyWlLk6GJQsqaUBKTNV-1">
          <mxGeometry x="359" y="30" width="120" height="60" as="geometry" />
        </mxCell>
        <mxCell id="e8TuYidNNoQ4Y2VT5mHc-22" style="edgeStyle=orthogonalEdgeStyle;rounded=0;orthogonalLoop=1;jettySize=auto;html=1;entryX=0.5;entryY=0;entryDx=0;entryDy=0;" edge="1" parent="WIyWlLk6GJQsqaUBKTNV-1" source="e8TuYidNNoQ4Y2VT5mHc-2" target="e8TuYidNNoQ4Y2VT5mHc-3">
          <mxGeometry relative="1" as="geometry" />
        </mxCell>
        <mxCell id="e8TuYidNNoQ4Y2VT5mHc-23" style="edgeStyle=orthogonalEdgeStyle;rounded=0;orthogonalLoop=1;jettySize=auto;html=1;exitX=1;exitY=0.5;exitDx=0;exitDy=0;entryX=0.5;entryY=0;entryDx=0;entryDy=0;" edge="1" parent="WIyWlLk6GJQsqaUBKTNV-1" source="e8TuYidNNoQ4Y2VT5mHc-2" target="e8TuYidNNoQ4Y2VT5mHc-17">
          <mxGeometry relative="1" as="geometry" />
        </mxCell>
        <mxCell id="e8TuYidNNoQ4Y2VT5mHc-24" style="edgeStyle=orthogonalEdgeStyle;rounded=0;orthogonalLoop=1;jettySize=auto;html=1;exitX=0.5;exitY=1;exitDx=0;exitDy=0;" edge="1" parent="WIyWlLk6GJQsqaUBKTNV-1" source="e8TuYidNNoQ4Y2VT5mHc-2" target="e8TuYidNNoQ4Y2VT5mHc-16">
          <mxGeometry relative="1" as="geometry" />
        </mxCell>
        <mxCell id="e8TuYidNNoQ4Y2VT5mHc-2" value="plant" style="rounded=0;whiteSpace=wrap;html=1;" vertex="1" parent="WIyWlLk6GJQsqaUBKTNV-1">
          <mxGeometry x="359" y="200" width="120" height="40" as="geometry" />
        </mxCell>
        <mxCell id="e8TuYidNNoQ4Y2VT5mHc-34" style="edgeStyle=orthogonalEdgeStyle;rounded=0;orthogonalLoop=1;jettySize=auto;html=1;exitX=0.5;exitY=1;exitDx=0;exitDy=0;entryX=0.5;entryY=0;entryDx=0;entryDy=0;" edge="1" parent="WIyWlLk6GJQsqaUBKTNV-1" source="e8TuYidNNoQ4Y2VT5mHc-3" target="e8TuYidNNoQ4Y2VT5mHc-4">
          <mxGeometry relative="1" as="geometry" />
        </mxCell>
        <mxCell id="e8TuYidNNoQ4Y2VT5mHc-3" value="shop&amp;nbsp;" style="rounded=0;whiteSpace=wrap;html=1;" vertex="1" parent="WIyWlLk6GJQsqaUBKTNV-1">
          <mxGeometry x="128" y="290" width="120" height="40" as="geometry" />
        </mxCell>
        <mxCell id="e8TuYidNNoQ4Y2VT5mHc-35" style="edgeStyle=orthogonalEdgeStyle;rounded=0;orthogonalLoop=1;jettySize=auto;html=1;exitX=0.5;exitY=1;exitDx=0;exitDy=0;" edge="1" parent="WIyWlLk6GJQsqaUBKTNV-1" source="e8TuYidNNoQ4Y2VT5mHc-4" target="e8TuYidNNoQ4Y2VT5mHc-5">
          <mxGeometry relative="1" as="geometry" />
        </mxCell>
        <mxCell id="e8TuYidNNoQ4Y2VT5mHc-4" value="line" style="rounded=0;whiteSpace=wrap;html=1;" vertex="1" parent="WIyWlLk6GJQsqaUBKTNV-1">
          <mxGeometry x="128" y="360" width="120" height="40" as="geometry" />
        </mxCell>
        <mxCell id="e8TuYidNNoQ4Y2VT5mHc-36" style="edgeStyle=orthogonalEdgeStyle;rounded=0;orthogonalLoop=1;jettySize=auto;html=1;exitX=0.5;exitY=1;exitDx=0;exitDy=0;entryX=0.5;entryY=0;entryDx=0;entryDy=0;" edge="1" parent="WIyWlLk6GJQsqaUBKTNV-1" source="e8TuYidNNoQ4Y2VT5mHc-5" target="e8TuYidNNoQ4Y2VT5mHc-25">
          <mxGeometry relative="1" as="geometry" />
        </mxCell>
        <mxCell id="e8TuYidNNoQ4Y2VT5mHc-5" value="machine" style="rounded=0;whiteSpace=wrap;html=1;" vertex="1" parent="WIyWlLk6GJQsqaUBKTNV-1">
          <mxGeometry x="128" y="440" width="120" height="40" as="geometry" />
        </mxCell>
        <mxCell id="e8TuYidNNoQ4Y2VT5mHc-15" style="edgeStyle=orthogonalEdgeStyle;rounded=0;orthogonalLoop=1;jettySize=auto;html=1;exitX=0.5;exitY=1;exitDx=0;exitDy=0;" edge="1" parent="WIyWlLk6GJQsqaUBKTNV-1" source="e8TuYidNNoQ4Y2VT5mHc-7" target="e8TuYidNNoQ4Y2VT5mHc-2">
          <mxGeometry relative="1" as="geometry" />
        </mxCell>
        <mxCell id="e8TuYidNNoQ4Y2VT5mHc-7" value="company" style="rounded=0;whiteSpace=wrap;html=1;" vertex="1" parent="WIyWlLk6GJQsqaUBKTNV-1">
          <mxGeometry x="359" y="120" width="120" height="40" as="geometry" />
        </mxCell>
        <mxCell id="e8TuYidNNoQ4Y2VT5mHc-38" style="edgeStyle=orthogonalEdgeStyle;rounded=0;orthogonalLoop=1;jettySize=auto;html=1;exitX=0.5;exitY=1;exitDx=0;exitDy=0;entryX=0.5;entryY=0;entryDx=0;entryDy=0;" edge="1" parent="WIyWlLk6GJQsqaUBKTNV-1" source="e8TuYidNNoQ4Y2VT5mHc-9" target="e8TuYidNNoQ4Y2VT5mHc-10">
          <mxGeometry relative="1" as="geometry" />
        </mxCell>
        <mxCell id="e8TuYidNNoQ4Y2VT5mHc-9" value="line" style="rounded=0;whiteSpace=wrap;html=1;" vertex="1" parent="WIyWlLk6GJQsqaUBKTNV-1">
          <mxGeometry x="359" y="360" width="120" height="40" as="geometry" />
        </mxCell>
        <mxCell id="e8TuYidNNoQ4Y2VT5mHc-39" style="edgeStyle=orthogonalEdgeStyle;rounded=0;orthogonalLoop=1;jettySize=auto;html=1;exitX=0.5;exitY=1;exitDx=0;exitDy=0;entryX=0.5;entryY=0;entryDx=0;entryDy=0;" edge="1" parent="WIyWlLk6GJQsqaUBKTNV-1" source="e8TuYidNNoQ4Y2VT5mHc-10" target="e8TuYidNNoQ4Y2VT5mHc-28">
          <mxGeometry relative="1" as="geometry" />
        </mxCell>
        <mxCell id="e8TuYidNNoQ4Y2VT5mHc-10" value="machine" style="rounded=0;whiteSpace=wrap;html=1;" vertex="1" parent="WIyWlLk6GJQsqaUBKTNV-1">
          <mxGeometry x="359" y="440" width="120" height="40" as="geometry" />
        </mxCell>
        <mxCell id="e8TuYidNNoQ4Y2VT5mHc-42" style="edgeStyle=orthogonalEdgeStyle;rounded=0;orthogonalLoop=1;jettySize=auto;html=1;exitX=0.5;exitY=1;exitDx=0;exitDy=0;entryX=0.5;entryY=0;entryDx=0;entryDy=0;" edge="1" parent="WIyWlLk6GJQsqaUBKTNV-1" source="e8TuYidNNoQ4Y2VT5mHc-11" target="e8TuYidNNoQ4Y2VT5mHc-29">
          <mxGeometry relative="1" as="geometry" />
        </mxCell>
        <mxCell id="e8TuYidNNoQ4Y2VT5mHc-11" value="machine" style="rounded=0;whiteSpace=wrap;html=1;" vertex="1" parent="WIyWlLk6GJQsqaUBKTNV-1">
          <mxGeometry x="579" y="440" width="120" height="40" as="geometry" />
        </mxCell>
        <mxCell id="e8TuYidNNoQ4Y2VT5mHc-37" style="edgeStyle=orthogonalEdgeStyle;rounded=0;orthogonalLoop=1;jettySize=auto;html=1;exitX=0.5;exitY=1;exitDx=0;exitDy=0;entryX=0.5;entryY=0;entryDx=0;entryDy=0;" edge="1" parent="WIyWlLk6GJQsqaUBKTNV-1" source="e8TuYidNNoQ4Y2VT5mHc-16" target="e8TuYidNNoQ4Y2VT5mHc-9">
          <mxGeometry relative="1" as="geometry" />
        </mxCell>
        <mxCell id="e8TuYidNNoQ4Y2VT5mHc-16" value="shop&amp;nbsp;" style="rounded=0;whiteSpace=wrap;html=1;" vertex="1" parent="WIyWlLk6GJQsqaUBKTNV-1">
          <mxGeometry x="359" y="290" width="120" height="40" as="geometry" />
        </mxCell>
        <mxCell id="e8TuYidNNoQ4Y2VT5mHc-40" style="edgeStyle=orthogonalEdgeStyle;rounded=0;orthogonalLoop=1;jettySize=auto;html=1;exitX=0.5;exitY=1;exitDx=0;exitDy=0;entryX=0.5;entryY=0;entryDx=0;entryDy=0;" edge="1" parent="WIyWlLk6GJQsqaUBKTNV-1" source="e8TuYidNNoQ4Y2VT5mHc-17" target="e8TuYidNNoQ4Y2VT5mHc-18">
          <mxGeometry relative="1" as="geometry" />
        </mxCell>
        <mxCell id="e8TuYidNNoQ4Y2VT5mHc-17" value="shop&amp;nbsp;" style="rounded=0;whiteSpace=wrap;html=1;" vertex="1" parent="WIyWlLk6GJQsqaUBKTNV-1">
          <mxGeometry x="579" y="290" width="120" height="40" as="geometry" />
        </mxCell>
        <mxCell id="e8TuYidNNoQ4Y2VT5mHc-41" style="edgeStyle=orthogonalEdgeStyle;rounded=0;orthogonalLoop=1;jettySize=auto;html=1;exitX=0.5;exitY=1;exitDx=0;exitDy=0;entryX=0.5;entryY=0;entryDx=0;entryDy=0;" edge="1" parent="WIyWlLk6GJQsqaUBKTNV-1" source="e8TuYidNNoQ4Y2VT5mHc-18" target="e8TuYidNNoQ4Y2VT5mHc-11">
          <mxGeometry relative="1" as="geometry" />
        </mxCell>
        <mxCell id="e8TuYidNNoQ4Y2VT5mHc-18" value="line" style="rounded=0;whiteSpace=wrap;html=1;" vertex="1" parent="WIyWlLk6GJQsqaUBKTNV-1">
          <mxGeometry x="579" y="360" width="120" height="40" as="geometry" />
        </mxCell>
        <mxCell id="e8TuYidNNoQ4Y2VT5mHc-31" style="edgeStyle=orthogonalEdgeStyle;rounded=0;orthogonalLoop=1;jettySize=auto;html=1;exitX=0.5;exitY=1;exitDx=0;exitDy=0;" edge="1" parent="WIyWlLk6GJQsqaUBKTNV-1" source="e8TuYidNNoQ4Y2VT5mHc-25" target="e8TuYidNNoQ4Y2VT5mHc-30">
          <mxGeometry relative="1" as="geometry" />
        </mxCell>
        <mxCell id="e8TuYidNNoQ4Y2VT5mHc-25" value="parameter" style="rounded=0;whiteSpace=wrap;html=1;" vertex="1" parent="WIyWlLk6GJQsqaUBKTNV-1">
          <mxGeometry x="128" y="515" width="120" height="40" as="geometry" />
        </mxCell>
        <mxCell id="e8TuYidNNoQ4Y2VT5mHc-32" style="edgeStyle=orthogonalEdgeStyle;rounded=0;orthogonalLoop=1;jettySize=auto;html=1;exitX=0.5;exitY=1;exitDx=0;exitDy=0;" edge="1" parent="WIyWlLk6GJQsqaUBKTNV-1" source="e8TuYidNNoQ4Y2VT5mHc-28">
          <mxGeometry relative="1" as="geometry">
            <mxPoint x="419" y="610" as="targetPoint" />
          </mxGeometry>
        </mxCell>
        <mxCell id="e8TuYidNNoQ4Y2VT5mHc-28" value="parameter" style="rounded=0;whiteSpace=wrap;html=1;" vertex="1" parent="WIyWlLk6GJQsqaUBKTNV-1">
          <mxGeometry x="359" y="515" width="120" height="40" as="geometry" />
        </mxCell>
        <mxCell id="e8TuYidNNoQ4Y2VT5mHc-33" style="edgeStyle=orthogonalEdgeStyle;rounded=0;orthogonalLoop=1;jettySize=auto;html=1;exitX=0.5;exitY=1;exitDx=0;exitDy=0;" edge="1" parent="WIyWlLk6GJQsqaUBKTNV-1" source="e8TuYidNNoQ4Y2VT5mHc-29" target="e8TuYidNNoQ4Y2VT5mHc-30">
          <mxGeometry relative="1" as="geometry" />
        </mxCell>
        <mxCell id="e8TuYidNNoQ4Y2VT5mHc-29" value="parameter" style="rounded=0;whiteSpace=wrap;html=1;" vertex="1" parent="WIyWlLk6GJQsqaUBKTNV-1">
          <mxGeometry x="579" y="515" width="120" height="40" as="geometry" />
        </mxCell>
        <mxCell id="e8TuYidNNoQ4Y2VT5mHc-30" value="end" style="ellipse;whiteSpace=wrap;html=1;" vertex="1" parent="WIyWlLk6GJQsqaUBKTNV-1">
          <mxGeometry x="359" y="610" width="120" height="60" as="geometry" />
        </mxCell>
      </root>
    </mxGraphModel>
  </diagram>
</mxfile>
